<svg width="65" height="64" viewBox="0 0 65 64" fill="none" xmlns="http://www.w3.org/2000/svg">
<path fill-rule="evenodd" clip-rule="evenodd" d="M14.6886 43.5593C14.5916 48.9168 18.8541 53.34 24.2118 53.4409H41.0053C46.3631 53.34 50.6255 48.9168 50.5285 43.5593L49.4098 31.558C49.1259 27.0334 45.9599 23.2068 41.5685 22.0807C40.6536 21.8146 39.7056 21.6784 38.7525 21.6763H26.4645C25.5116 21.6784 24.5637 21.8146 23.6486 22.0807C19.2601 23.2072 16.0956 27.031 15.8099 31.5529L14.6886 43.5593Z" stroke="#3F3E3F" stroke-width="2.5" stroke-linecap="round" stroke-linejoin="round"/>
<path d="M39.6485 26.274C39.6485 27.3343 40.5082 28.1939 41.5685 28.1939C42.6289 28.1939 43.4885 27.3343 43.4885 26.274H39.6485ZM41.5685 21.1002H43.4885C43.4885 21.0875 43.4885 21.0747 43.4883 21.062L41.5685 21.1002ZM32.6085 12.4807L32.5724 14.4004C32.5965 14.4008 32.6206 14.4008 32.6446 14.4004L32.6085 12.4807ZM23.6485 21.1002L21.7289 21.062C21.7287 21.0747 21.7285 21.0875 21.7285 21.1002H23.6485ZM21.7285 26.2714C21.7285 27.3318 22.5882 28.1914 23.6485 28.1914C24.7089 28.1914 25.5685 27.3318 25.5685 26.2714H21.7285ZM42.0695 41.4706C42.4658 40.487 41.9894 39.3686 41.0058 38.9723C40.0223 38.5763 38.9038 39.0524 38.5075 40.036L42.0695 41.4706ZM38.0255 43.8406L39.2384 45.3293L39.2456 45.3231L38.0255 43.8406ZM27.1404 43.7613L25.8974 45.2248L25.906 45.232L27.1404 43.7613ZM26.721 39.9525C26.3409 38.9626 25.2304 38.4682 24.2404 38.8481C23.2505 39.2283 22.7561 40.3388 23.1361 41.3288L26.721 39.9525ZM26.8485 32.9606C26.8485 31.9003 25.9889 31.0406 24.9285 31.0406C23.8682 31.0406 23.0085 31.9003 23.0085 32.9606H26.8485ZM23.0085 35.5206C23.0085 36.581 23.8682 37.4406 24.9285 37.4406C25.9889 37.4406 26.8485 36.581 26.8485 35.5206H23.0085ZM42.2085 32.9606C42.2085 31.9003 41.3489 31.0406 40.2885 31.0406C39.2282 31.0406 38.3685 31.9003 38.3685 32.9606H42.2085ZM38.3685 35.5206C38.3685 36.581 39.2282 37.4406 40.2885 37.4406C41.3489 37.4406 42.2085 36.581 42.2085 35.5206H38.3685ZM43.4885 26.274V21.1002H39.6485V26.274H43.4885ZM43.4883 21.062C43.3705 15.1493 38.4853 10.4497 32.5724 10.561L32.6446 14.4004C36.4388 14.3289 39.5735 17.3445 39.649 21.1384L43.4883 21.062ZM32.6446 10.561C26.7318 10.4497 21.8466 15.1493 21.7289 21.062L25.5682 21.1384C25.6437 17.3445 28.7785 14.3289 32.5724 14.4004L32.6446 10.561ZM21.7285 21.1002V26.2714H25.5685V21.1002H21.7285ZM38.5075 40.036C38.1435 40.9404 37.558 41.7386 36.8054 42.3581L39.2456 45.3231C40.4943 44.2955 41.4654 42.9707 42.0695 41.4706L38.5075 40.036ZM36.8128 42.3523C34.3496 44.359 30.8083 44.3334 28.3748 42.2908L25.906 45.232C29.751 48.4594 35.3467 48.5003 39.2384 45.3293L36.8128 42.3523ZM28.3832 42.298C27.6416 41.6677 27.07 40.8613 26.721 39.9525L23.1361 41.3288C23.7156 42.8384 24.665 44.1783 25.8974 45.2248L28.3832 42.298ZM23.0085 32.9606V35.5206H26.8485V32.9606H23.0085ZM38.3685 32.9606V35.5206H42.2085V32.9606H38.3685Z" fill="#3F3E3F"/>
</svg>
